<?xml version="1.0" standalone="no"?>
<!DOCTYPE svg PUBLIC "-//W3C//DTD SVG 20010904//EN"
 "http://www.w3.org/TR/2001/REC-SVG-20010904/DTD/svg10.dtd">
<svg version="1.0" xmlns="http://www.w3.org/2000/svg"
 width="449.000000pt" height="248.000000pt" viewBox="0 0 449.000000 248.000000"
 preserveAspectRatio="xMidYMid meet">

<g transform="translate(0.000000,248.000000) scale(0.100000,-0.100000)"
fill="#000000" stroke="none">
<path d="M1635 2431 c-533 -138 -1085 -541 -1361 -995 -27 -46 -43 -81 -38
-86 6 -6 71 9 158 35 82 25 151 44 152 42 2 -1 -26 -36 -60 -77 -55 -65 -104
-110 -215 -197 -30 -24 -263 -524 -250 -537 17 -18 64 19 215 169 210 209 360
408 466 619 59 117 58 131 -7 112 -25 -8 -45 -11 -45 -7 0 14 138 218 198 292
83 102 251 262 345 327 42 29 111 70 154 92 l78 40 3 -27 c6 -43 -47 -187 -99
-275 -54 -89 -116 -166 -199 -246 -51 -49 -55 -51 -64 -32 -5 11 -14 20 -20
20 -24 1 -196 -96 -194 -109 2 -7 27 -22 56 -33 34 -13 52 -25 52 -36 0 -9
-13 -72 -29 -139 -15 -67 -25 -126 -22 -132 4 -6 78 7 195 34 l190 44 37 -33
c60 -55 160 -59 220 -9 l29 25 9 -25 c6 -14 14 -28 20 -31 6 -4 51 20 100 53
l90 61 21 -35 c37 -60 121 -95 189 -80 17 3 47 18 67 31 37 25 53 21 54 -13 0
-28 26 -21 110 32 l89 56 43 -44 c54 -57 110 -76 168 -58 45 13 102 59 127
102 10 16 21 29 25 29 4 0 24 -31 43 -70 19 -38 39 -70 44 -70 5 0 36 38 69
85 l59 85 57 -85 c31 -47 59 -85 64 -85 4 0 43 45 86 100 43 55 82 100 87 100
15 0 69 -94 69 -121 0 -37 -45 -73 -80 -64 -47 12 -64 10 -68 -6 -4 -19 47
-54 95 -64 47 -9 109 11 148 50 45 45 59 97 44 164 -13 63 -1 88 69 132 56 35
108 38 146 8 29 -23 33 -46 12 -75 -14 -18 -15 -18 -29 0 -13 17 -16 17 -84
-18 -40 -19 -74 -40 -78 -46 -9 -15 13 -40 30 -34 8 4 25 -17 46 -56 18 -34
39 -65 47 -67 7 -3 68 22 135 57 109 55 123 60 132 45 38 -64 103 -105 166
-105 46 1 109 31 140 67 l25 29 29 -29 c66 -67 160 -83 249 -41 51 25 44 47
-16 54 -75 9 -134 80 -169 200 -17 61 -21 64 -64 45 -38 -15 -39 -15 -69 14
-54 52 -123 65 -193 36 -64 -27 -100 -74 -112 -144 -5 -29 -15 -38 -79 -74
-60 -32 -76 -37 -83 -26 -13 20 -12 21 39 54 87 56 114 128 68 182 -23 26 -29
28 -100 28 -42 0 -76 1 -76 3 0 1 74 113 165 249 90 135 162 250 159 255 -6
10 -165 10 -180 0 -6 -4 -93 -141 -194 -304 l-184 -297 -30 45 c-17 24 -36 44
-42 44 -6 0 -44 -43 -84 -95 -52 -68 -76 -92 -82 -83 -4 7 -29 50 -55 96 -26
45 -51 82 -57 82 -6 0 -35 -31 -65 -70 -29 -38 -57 -68 -61 -65 -5 3 -25 35
-45 71 -20 36 -42 63 -48 61 -7 -2 -38 -48 -69 -103 -68 -119 -94 -144 -149
-144 -69 0 -106 32 -51 43 37 7 89 56 98 91 14 59 -38 116 -106 116 -89 0
-190 -110 -190 -207 0 -19 -44 -48 -58 -39 -4 2 -20 28 -36 58 l-29 54 212
317 c116 174 211 321 211 327 0 15 -163 13 -182 -2 -9 -7 -79 -114 -155 -238
-77 -124 -152 -244 -166 -267 l-27 -43 -33 20 c-69 43 -185 12 -234 -61 -16
-24 -28 -59 -31 -89 -4 -42 -8 -50 -34 -61 -16 -6 -30 -10 -31 -8 -2 2 -22 45
-44 94 -37 82 -43 90 -67 88 -15 -1 -43 9 -63 23 -46 31 -73 38 -129 31 -92
-10 -156 -82 -162 -183 -4 -63 -4 -64 -40 -74 -20 -5 -37 -8 -39 -7 -6 7 -73
199 -73 211 0 7 36 36 81 65 255 167 475 418 579 662 17 39 33 89 36 110 7 39
6 39 -27 39 -19 -1 -83 -14 -144 -29z m-115 -860 l24 -19 -27 -13 c-32 -14
-33 -21 -7 -76 l19 -43 -22 -15 c-64 -45 -156 25 -140 108 12 64 101 98 153
58z m518 3 l22 -15 -20 -29 -21 -29 21 -40 20 -40 -22 -15 c-34 -24 -74 -20
-110 13 -27 24 -33 36 -33 71 0 75 85 125 143 84z m506 -13 c10 -15 -3 -36
-33 -54 -37 -22 -51 -21 -51 1 0 43 65 84 84 53z m1550 3 c12 -5 13 -9 3 -25
-9 -14 -8 -28 1 -61 21 -69 20 -81 -11 -96 -59 -29 -127 20 -127 90 0 69 70
117 134 92z" fill="#008000"/>
<path d="M1309 894 c-86 -26 -137 -115 -126 -216 7 -57 27 -96 75 -150 37 -42
224 -196 249 -205 16 -6 145 89 232 171 75 71 111 139 111 209 0 174 -175 263
-299 152 l-38 -35 -24 26 c-50 53 -111 70 -180 48z" fill="#FF0000"/>
<path d="M2845 905 c-5 -2 -22 -6 -37 -9 -37 -8 -98 -63 -114 -103 -21 -49
-18 -139 6 -188 11 -23 48 -69 83 -103 66 -65 213 -182 229 -182 12 0 109 75
201 153 110 94 151 191 126 292 -23 92 -126 159 -208 135 -43 -12 -98 -47
-105 -67 -6 -14 -10 -13 -34 9 -49 46 -112 73 -147 63z" fill="#FF0000"/>
<path d="M2045 701 c-115 -28 -185 -131 -172 -255 11 -112 76 -193 280 -353
125 -98 96 -101 253 25 124 99 199 178 227 239 30 66 30 172 0 228 -71 135
-228 159 -341 52 l-32 -31 -16 22 c-35 51 -137 88 -199 73z" fill="#FF0000"/>
</g>
</svg>
